<mxfile host="app.diagrams.net" agent="Mozilla/5.0 (Windows NT 10.0; Win64; x64) AppleWebKit/537.36 (KHTML, like Gecko) Chrome/140.0.0.0 Safari/537.36" version="28.2.1">
  <diagram name="Página-1" id="EG0WJdgCVq0QqxWWPfPJ">
    <mxGraphModel dx="1042" dy="562" grid="1" gridSize="10" guides="1" tooltips="1" connect="1" arrows="1" fold="1" page="1" pageScale="1" pageWidth="827" pageHeight="1169" math="0" shadow="0">
      <root>
        <mxCell id="0" />
        <mxCell id="1" parent="0" />
        <mxCell id="Y40OZUE1ph2ek5Ms6YB9-1" value="&lt;div&gt;&lt;br&gt;&lt;/div&gt;" style="shape=umlLifeline;perimeter=lifelinePerimeter;whiteSpace=wrap;html=1;container=1;dropTarget=0;collapsible=0;recursiveResize=0;outlineConnect=0;portConstraint=eastwest;newEdgeStyle={&quot;curved&quot;:0,&quot;rounded&quot;:0};participant=umlActor;size=40;" parent="1" vertex="1">
          <mxGeometry x="174" y="130" width="20" height="300" as="geometry" />
        </mxCell>
        <mxCell id="Y40OZUE1ph2ek5Ms6YB9-2" value="UEg" style="shape=umlLifeline;perimeter=lifelinePerimeter;whiteSpace=wrap;html=1;container=1;dropTarget=0;collapsible=0;recursiveResize=0;outlineConnect=0;portConstraint=eastwest;newEdgeStyle={&quot;curved&quot;:0,&quot;rounded&quot;:0};" parent="1" vertex="1">
          <mxGeometry x="324" y="130" width="100" height="300" as="geometry" />
        </mxCell>
        <mxCell id="Y40OZUE1ph2ek5Ms6YB9-3" value="" style="html=1;points=[[0,0,0,0,5],[0,1,0,0,-5],[1,0,0,0,5],[1,1,0,0,-5]];perimeter=orthogonalPerimeter;outlineConnect=0;targetShapes=umlLifeline;portConstraint=eastwest;newEdgeStyle={&quot;curved&quot;:0,&quot;rounded&quot;:0};" parent="Y40OZUE1ph2ek5Ms6YB9-2" vertex="1">
          <mxGeometry x="45" y="70" width="10" height="80" as="geometry" />
        </mxCell>
        <mxCell id="Y40OZUE1ph2ek5Ms6YB9-4" value="UEv" style="shape=umlLifeline;perimeter=lifelinePerimeter;whiteSpace=wrap;html=1;container=1;dropTarget=0;collapsible=0;recursiveResize=0;outlineConnect=0;portConstraint=eastwest;newEdgeStyle={&quot;curved&quot;:0,&quot;rounded&quot;:0};" parent="1" vertex="1">
          <mxGeometry x="554" y="130" width="100" height="300" as="geometry" />
        </mxCell>
        <mxCell id="Y40OZUE1ph2ek5Ms6YB9-5" value="" style="html=1;points=[[0,0,0,0,5],[0,1,0,0,-5],[1,0,0,0,5],[1,1,0,0,-5]];perimeter=orthogonalPerimeter;outlineConnect=0;targetShapes=umlLifeline;portConstraint=eastwest;newEdgeStyle={&quot;curved&quot;:0,&quot;rounded&quot;:0};" parent="Y40OZUE1ph2ek5Ms6YB9-4" vertex="1">
          <mxGeometry x="45" y="70" width="10" height="70" as="geometry" />
        </mxCell>
        <mxCell id="Y40OZUE1ph2ek5Ms6YB9-6" value="cadastrarUEv()" style="html=1;verticalAlign=bottom;endArrow=block;curved=0;rounded=0;" parent="1" source="Y40OZUE1ph2ek5Ms6YB9-1" target="Y40OZUE1ph2ek5Ms6YB9-2" edge="1">
          <mxGeometry x="-0.0474" y="-20" width="80" relative="1" as="geometry">
            <mxPoint x="444" y="300" as="sourcePoint" />
            <mxPoint x="524" y="300" as="targetPoint" />
            <Array as="points">
              <mxPoint x="284" y="210" />
            </Array>
            <mxPoint x="1" as="offset" />
          </mxGeometry>
        </mxCell>
        <mxCell id="Y40OZUE1ph2ek5Ms6YB9-7" value="Verifica se existem UEv dispopníveis" style="html=1;verticalAlign=bottom;endArrow=block;curved=0;rounded=0;" parent="1" source="Y40OZUE1ph2ek5Ms6YB9-2" target="Y40OZUE1ph2ek5Ms6YB9-4" edge="1">
          <mxGeometry x="-0.0474" y="-20" width="80" relative="1" as="geometry">
            <mxPoint x="214" y="210" as="sourcePoint" />
            <mxPoint x="404" y="210" as="targetPoint" />
            <Array as="points">
              <mxPoint x="480" y="220" />
            </Array>
            <mxPoint x="1" as="offset" />
          </mxGeometry>
        </mxCell>
        <mxCell id="Y40OZUE1ph2ek5Ms6YB9-8" value="Cadastra a UEv" style="html=1;verticalAlign=bottom;endArrow=block;curved=0;rounded=0;dashed=1;" parent="1" source="Y40OZUE1ph2ek5Ms6YB9-4" target="Y40OZUE1ph2ek5Ms6YB9-2" edge="1">
          <mxGeometry x="0.0102" y="23" width="80" relative="1" as="geometry">
            <mxPoint x="510" y="220" as="sourcePoint" />
            <mxPoint x="740" y="220" as="targetPoint" />
            <Array as="points">
              <mxPoint x="480" y="250" />
            </Array>
            <mxPoint as="offset" />
          </mxGeometry>
        </mxCell>
        <mxCell id="Y40OZUE1ph2ek5Ms6YB9-9" value="Informa que a UEv foi cadastrada" style="html=1;verticalAlign=bottom;endArrow=block;curved=0;rounded=0;dashed=1;" parent="1" source="Y40OZUE1ph2ek5Ms6YB9-2" target="Y40OZUE1ph2ek5Ms6YB9-1" edge="1">
          <mxGeometry x="0.0102" y="23" width="80" relative="1" as="geometry">
            <mxPoint x="650" y="270" as="sourcePoint" />
            <mxPoint x="420" y="270" as="targetPoint" />
            <Array as="points">
              <mxPoint x="280" y="270" />
            </Array>
            <mxPoint as="offset" />
          </mxGeometry>
        </mxCell>
      </root>
    </mxGraphModel>
  </diagram>
</mxfile>
